<?xml version="1.0" encoding="utf-8"?>
<!-- Generator: Adobe Illustrator 19.0.0, SVG Export Plug-In . SVG Version: 6.00 Build 0)  -->
<svg version="1.1" id="logo" xmlns="http://www.w3.org/2000/svg" xmlns:xlink="http://www.w3.org/1999/xlink" x="0px" y="0px"
	 viewBox="0 0 77.7 52.3" enable-background="new 0 0 77.7 52.3" xml:space="preserve">
<g id="XMLID_227_">
	<g id="XMLID_228_">
		<polygon id="XMLID_231_" fill="#202021" points="69,48.5 58.1,32.2 50.6,32.2 61.4,48.5 56.4,48.5 56.4,50 62.5,50 70,50 74.5,50 
			74.5,48.5 		"/>
		<rect id="XMLID_230_" x="60" y="16.2" fill="#202021" width="12.1" height="1.5"/>
		<path id="XMLID_229_" fill="#202021" d="M44.3,3.3V1.8h-6H27.5v1.5h10.9v45.2h-21v0c0,0,0,0-0.1,0c-5,0-9-7.4-9-15.7
			c0-8.3,4.1-15.1,9-15.1c6.4,0,8.5,5,9,13h-9v1.5h14.7v0h0.4c0-9-3.6-16-15.1-16c-8.3,0-15.1,7.4-15.1,16.6C2.1,42,8.9,50,17.2,50
			c0,0,0,0,0,0v0h21.1h6h6v-1.5h-6V3.3z"/>
	</g>
</g>
</svg>
