<svg xmlns="http://www.w3.org/2000/svg" viewBox="0 0 149.33 56.69"><defs><style>.cls-1{fill:#8b8c8b;}.cls-2{fill:#fff;}</style></defs><title>enkorr-logo-wog-gray</title><g id="Шар_2" data-name="Шар 2"><g id="logo"><rect id="_Прямокутник_" data-name="&lt;Прямокутник&gt;" class="cls-1" width="56.69" height="56.69" rx="5.67" ry="5.67"/><g id="_Група_" data-name="&lt;Група&gt;"><path id="_Складений_контур_" data-name="&lt;Складений контур&gt;" class="cls-1" d="M81.34,40.34a6,6,0,0,1-4.92,2.15,6.22,6.22,0,0,1-2.2-.43,5.78,5.78,0,0,1-1.95-1.19,5.41,5.41,0,0,1-1.66-4.07,5.51,5.51,0,0,1,5.59-5.58c2.52,0,4.44,1,5.09,2.95a6.57,6.57,0,0,1,.32,2.12h-8v.33q0,3.4,1.92,4.46a3.13,3.13,0,0,0,1.55.36,5,5,0,0,0,3.63-1.63Zm-2.68-5A4.74,4.74,0,0,0,78.12,33a1.84,1.84,0,0,0-1.69-.83q-2.39,0-2.72,3.24Z"/><path id="_Складений_контур_2" data-name="&lt;Складений контур&gt;" class="cls-1" d="M91.19,32.26A4.2,4.2,0,0,0,87.95,34v7.63h2v.86H83.3v-.86h1.78V32.26H83.29v-1h4.65v1.69a5.12,5.12,0,0,1,3.77-1.7,4.66,4.66,0,0,1,2.6.74,3.35,3.35,0,0,1,1.46,3v6.64h1.78v.86H90.92v-.86h2V34.78a3.72,3.72,0,0,0-.27-1.72,1.59,1.59,0,0,0-.6-.63A1.87,1.87,0,0,0,91.19,32.26Z"/><path id="_Складений_контур_3" data-name="&lt;Складений контур&gt;" class="cls-1" d="M99.24,41.62h1.68V32.08H99.24v-.86h4.54V36.8l5.56-4.73h-2v-.85h4.9v.85h-1.44l-3.55,3,4.58,6.58h1.51v.86H107v-.86h1.55l-3.32-4.89-1.42,1.19v3.71h1.63v.86H99.24Z"/><path id="_Складений_контур_4" data-name="&lt;Складений контур&gt;" class="cls-1" d="M114.13,36.83a5.32,5.32,0,0,1,1.65-4.06,5.81,5.81,0,0,1,4.15-1.55,5.73,5.73,0,0,1,4.12,1.55,5.35,5.35,0,0,1,1.62,4.06,5.46,5.46,0,0,1-1.61,4.09,5.66,5.66,0,0,1-4.13,1.57,5.78,5.78,0,0,1-4.16-1.57A5.4,5.4,0,0,1,114.13,36.83Zm5.77,4.74q2.22,0,2.61-2.91a14.81,14.81,0,0,0,.11-1.86,8.12,8.12,0,0,0-.53-3.34,2.25,2.25,0,0,0-2.19-1.33q-2.22,0-2.61,2.81a14.63,14.63,0,0,0-.11,1.86,8.37,8.37,0,0,0,.53,3.38A2.26,2.26,0,0,0,119.9,41.58Z"/><path id="_Складений_контур_5" data-name="&lt;Складений контур&gt;" class="cls-1" d="M131.92,32.81a5.62,5.62,0,0,1,3.83-1.59,1.73,1.73,0,0,1,1.17.44,1.43,1.43,0,0,1,.51,1.13A1.51,1.51,0,0,1,137,33.9a1.42,1.42,0,0,1-1,.43,1.36,1.36,0,0,1-1-.46,1.6,1.6,0,0,1-.42-1.13,1.9,1.9,0,0,1,.09-.56,5.74,5.74,0,0,0-2.65,1.77v7.68h2.41v.85H127.4v-.85H129V32.08h-1.65v-.86h4.53Z"/><path id="_Складений_контур_6" data-name="&lt;Складений контур&gt;" class="cls-1" d="M143.83,32.81a5.62,5.62,0,0,1,3.83-1.59,1.73,1.73,0,0,1,1.17.44,1.43,1.43,0,0,1,.51,1.13,1.51,1.51,0,0,1-.43,1.12,1.42,1.42,0,0,1-1,.43,1.36,1.36,0,0,1-1-.46,1.6,1.6,0,0,1-.42-1.13,1.9,1.9,0,0,1,.09-.56,5.74,5.74,0,0,0-2.65,1.77v7.68h2.41v.85h-6.93v-.85h1.64V32.08H139.3v-.86h4.53Z"/></g><g id="_Група_2" data-name="&lt;Група&gt;"><polygon id="_Контур_" data-name="&lt;Контур&gt;" class="cls-2" points="46.37 41.64 39.97 32.07 35.54 32.07 41.94 41.64 38.98 41.64 38.98 42.53 42.53 42.53 46.96 42.53 49.61 42.53 49.61 41.64 46.37 41.64"/><rect id="_Контур_2" data-name="&lt;Контур&gt;" class="cls-2" x="41.1" y="22.68" width="7.09" height="0.89"/><path id="_Контур_3" data-name="&lt;Контур&gt;" class="cls-2" d="M31.89,15.07v-.89H22v.89h6.37V41.64H15.94c-2.94,0-5.31-4.33-5.31-9.22s2.38-8.86,5.31-8.86c3.75,0,5,2.93,5.3,7.62H16v.89h8.86c0-5.28-2.14-9.39-8.86-9.39-4.89,0-8.86,4.36-8.86,9.74s4,10.11,8.86,10.11H35.44v-.89H31.89Z"/></g></g></g></svg>